inDegrees=no
num_controls=7
num_derivatives=13
num_iterations=126
num_multipliers=7
num_parameters=0
num_slacks=7
num_states=26
objective=0.442434
objective_accelerations=0.061073
objective_balance=0.003925
objective_effort=0.025099
objective_height=0.346867
objective_ligament=0.005470
solver_duration=1893.749977
status=Solve_Succeeded
success=true
DataType=double
version=3
OpenSimVersion=4.5
endheader
time	/jointset/ground_pelvis/pelvis_tilt/value	/jointset/ground_pelvis/pelvis_tx/value	/jointset/ground_pelvis/pelvis_ty/value	/jointset/hip_l/hip_flexion_l/value	/jointset/hip_l/hip_adduction_l/value	/jointset/hip_l/hip_rotation_l/value	/jointset/back/lumbar_extension/value	/jointset/patellofemoral_l/patellar_flexion_l/value	/jointset/knee_l/knee_flexion_l/value	/jointset/knee_l/knee_adduction_l/value	/jointset/knee_l/knee_rotation_l/value	/jointset/ankle_l/ankle_angle_l/value	/jointset/subtalar_l/subtalar_angle_l/value	/jointset/ground_pelvis/pelvis_tilt/speed	/jointset/ground_pelvis/pelvis_tx/speed	/jointset/ground_pelvis/pelvis_ty/speed	/jointset/hip_l/hip_flexion_l/speed	/jointset/hip_l/hip_adduction_l/speed	/jointset/hip_l/hip_rotation_l/speed	/jointset/back/lumbar_extension/speed	/jointset/patellofemoral_l/patellar_flexion_l/speed	/jointset/knee_l/knee_flexion_l/speed	/jointset/knee_l/knee_adduction_l/speed	/jointset/knee_l/knee_rotation_l/speed	/jointset/ankle_l/ankle_angle_l/speed	/jointset/subtalar_l/subtalar_angle_l/speed	/forceset/tau_hip_flexion_l	/forceset/tau_hip_adduction_l	/forceset/tau_hip_rotation_l	/forceset/tau_knee_flexion_l	/forceset/tau_ankle_angle_l	/forceset/tau_subtalar_angle_l	/forceset/tau_lumbar_extension	lambda_cid13_p0	lambda_cid13_p1	lambda_cid13_p2	lambda_cid13_p3	lambda_cid13_p4	lambda_cid13_p5	lambda_cid14_p0	/jointset/ground_pelvis/pelvis_tilt/accel	/jointset/ground_pelvis/pelvis_tx/accel	/jointset/ground_pelvis/pelvis_ty/accel	/jointset/hip_l/hip_flexion_l/accel	/jointset/hip_l/hip_adduction_l/accel	/jointset/hip_l/hip_rotation_l/accel	/jointset/back/lumbar_extension/accel	/jointset/patellofemoral_l/patellar_flexion_l/accel	/jointset/knee_l/knee_flexion_l/accel	/jointset/knee_l/knee_adduction_l/accel	/jointset/knee_l/knee_rotation_l/accel	/jointset/ankle_l/ankle_angle_l/accel	/jointset/subtalar_l/subtalar_angle_l/accel	gamma_cid13_p0	gamma_cid13_p1	gamma_cid13_p2	gamma_cid13_p3	gamma_cid13_p4	gamma_cid13_p5	gamma_cid14_p0
0	-0.03955091446025175	0.06892506956157995	0.8959518659550795	0.1955287580552426	-0.3219962675225364	-0.4836066061722121	-0.1379045077516729	0.07015288079084916	0.07015288079084844	-0.1745328098156089	-0.1180621009074196	-0.06701059314715049	0.003833253312510985	0	0	0	0	0	0	0	0	0	0	0	0	0	0.1102075381082234	-0.1006876083342774	-0.02999027202498454	-0.2323298833387323	0.1838006088929667	-0.01451541550476485	-0.05583478617224659	23.34789363065335	-0.9592482504229015	3.443907974028146	4.329773711517452	-513.5022734314229	-82.03156406580382	-39.92074680469354	-4.985502198862237	-2.1017084414048	-1.053284057178467	13.69427485118926	-2.187203791025138	3.521846101402035	-2.96110240121065	10.65998991439182	10.65998991439237	0.7484221692256263	-0.8761178971009257	2.173346635686979	-1.218844397057283	-3.214100348568988e-08	1.419491225149846e-07	1.472426152238612e-07	1.478065131707415e-08	-1.869163658397805e-08	-4.514067948065351e-08	-7.597737668584306e-09
0.01	-0.03978909708284589	0.06882143743608654	0.8959007200524071	0.1961915299150947	-0.3221038687824093	-0.4834300926581168	-0.1380589126116745	0.07067089993801025	0.0706708999380074	-0.1744988404907293	-0.1180998107774446	-0.0669065641512631	0.003771675020851219	-0.0474109133091643	-0.02062591576691682	-0.01019583406256915	0.1319610156077471	-0.0214022388687761	0.03512790196928652	-0.03060522187248336	0.1031562887261501	0.1031562887261508	0.006800067490106709	-0.007526260201871951	0.02073228810070192	-0.01222707475656122	0.1056037479055596	-0.09843003117669394	-0.0291741164425511	-0.2269330623026751	0.1772546816226506	-0.01265321658169553	-0.05187755299378494	21.29227752345788	-1.456703906012699	3.578758235128072	4.925668039849222	-514.3815551356935	-82.7828174394124	-39.93126556868594	-4.585057574020251	-2.027953788483928	-0.997734848337379	12.85799764805845	-2.099068807416597	3.482025514718405	-3.068869561072694	10.07631876548177	10.07631876548155	0.6467701461186783	-0.6885083438536526	2.012145427210595	-1.211390858039033	-7.021678722387334e-08	1.654444637792483e-07	2.192826320921484e-07	5.070276477988456e-08	-2.589860616210446e-07	-9.093615208212168e-08	-1.283820353151625e-08
0.02	-0.04049462317394671	0.06851456202409414	0.8957486154556006	0.1981561084775212	-0.3224219594054923	-0.4829075474703217	-0.1385110971865618	0.07220705605517658	0.07220705605517619	-0.1743966762694921	-0.1182123089019242	-0.06659741716837879	0.003590475613009154	-0.09346869370139181	-0.04064865729979789	-0.02019173882678964	0.2603613405151364	-0.04209787264206138	0.06920633473962957	-0.05955594297718454	0.2036273940025067	0.203627394002506	0.01363897926883169	-0.01495765088867659	0.04102359739935554	-0.02392422323646263	0.10099995770287	-0.09617245401911396	-0.02835796086006396	-0.2215362412666477	0.1707087543523237	-0.0107910176586364	-0.04792031981533158	19.30359702462352	-1.96651823065261	3.716309458706278	5.370352603998838	-514.2747619975601	-83.36282785814448	-39.96224008833839	-4.714875615474861	-1.981073594597666	-1.013298197508735	12.98213671111772	-2.045882771926984	3.311952261613344	-2.630202247654207	10.12295322443311	10.12295322443324	0.7561910269492621	-0.8571439940874671	2.085150875277297	-1.112859141725342	-1.082925709620568e-07	1.889398050435119e-07	2.913226489604356e-07	8.662487824269498e-08	-4.992804866581112e-07	-1.367316246835898e-07	-1.80786693944482e-08
0.03	-0.04165465372815957	0.0680105184341807	0.8954972014075646	0.2013879591657211	-0.3229434213096692	-0.4820492446183527	-0.1392439353918355	0.07473490974429312	0.07473490974429546	-0.1742259288864222	-0.1183985556760579	-0.06608741368914316	0.003295071557487757	-0.1383093885909336	-0.06005207362142566	-0.0300827186661286	0.3853996368933519	-0.06207361185328572	0.102329705318299	-0.08675196909022521	0.3014668957658717	0.301466895765868	0.02048284446572746	-0.02221430628086173	0.06089325296980621	-0.03507270901919136	0.09619933666506007	-0.09332205301326431	-0.0275710129586084	-0.2170509150908635	0.1655416079586327	-0.009669284215534941	-0.04390655911989839	17.73388465036456	-2.23488037880563	3.823102893661019	5.661981560789728	-514.0663936504754	-83.29291857704605	-40.01241966387488	-4.334474125383302	-1.903760121662869	-0.9758458869910056	12.17328199189975	-1.955335390049575	3.293811612890536	-2.725343445009805	9.542985080893999	9.542985080893652	0.6444009289929135	-0.6482810648329488	1.925295554978779	-1.103324063110815	-1.397250603528106e-07	2.141809333508225e-07	3.553837212383353e-07	1.16873859632934e-07	-6.820573891376752e-07	-1.751147642819658e-07	-2.227057554593715e-08
0.04	-0.04325625277120544	0.06731568378690737	0.8951471079591665	0.2058519139958481	-0.3236610237848244	-0.4808634516292177	-0.1402409419886156	0.0782268657367693	0.07822686573676908	-0.1739875595187916	-0.1186550399547144	-0.06538122912279304	0.002890686490826251	-0.1817823914680545	-0.07880686877177381	-0.03992761889924091	0.5067821689006158	-0.08132598683768681	0.1347043621728407	-0.1123896212784954	0.3964478546734693	0.3964478546734695	0.02716337617995054	-0.02900515179500437	0.08025981482225018	-0.04572042546448717	0.09139871562725052	-0.09047165200741521	-0.02678406505720048	-0.2125655889150681	0.1603744615649444	-0.008547550772431991	-0.03989279842446686	16.22478995061868	-2.513521529598611	3.931153490071628	5.813520540776579	-512.9657647940501	-83.06212742063995	-40.08015381538521	-4.441337212990693	-1.851349360341761	-1.004082276263405	12.25098383692742	-1.901209926562337	3.162209516787814	-2.318527462700103	9.551244653279642	9.551244653281117	0.7235243304147219	-0.7639820184789711	1.984532131675934	-1.012705274238772	-1.710205746023803e-07	2.394580572672681e-07	4.192802791947837e-07	1.470058692278623e-07	-8.636483633170843e-07	-2.133450722720305e-07	-2.644086190956131e-08
0.05	-0.04528658465881062	0.06643651228220526	0.8946984791043213	0.2115131021870504	-0.324567450778685	-0.4793581489799921	-0.1414858287397888	0.08265545098423714	0.08265545098423659	-0.1736828144179601	-0.1189779635500532	-0.06448350953825725	0.002382619043657131	-0.2240528467167352	-0.09691829715033751	-0.04980981964425051	0.6248579889854871	-0.0998263092814428	0.1662100919424058	-0.136346759043553	0.4888021749058887	0.4888021749058875	0.03376190093622821	-0.03552389749452936	0.09920099381912027	-0.05579666401440599	0.08629932612212293	-0.08647250162683778	-0.02599782031679916	-0.2086138854172093	0.1562126357655282	-0.008440126036905183	-0.03574251547913958	14.99579602009945	-2.42275397148748	4.005509671171121	5.953974611980967	-511.8935076891134	-81.91662103540652	-40.16336746470634	-4.085241000694269	-1.77463967925742	-0.9822133068599791	11.49623284100178	-1.804543352792673	3.122786705801986	-2.398161446492093	9.007478042989844	9.007478042988653	0.624542354853018	-0.5874166909066322	1.836442043962027	-0.9907078687194831	-1.876474495950264e-07	2.416012968619428e-07	4.520501839432346e-07	1.642904875829752e-07	-9.700471107377803e-07	-2.347637260417393e-07	-2.877855275714712e-08
0.06	-0.04773268936287992	0.0653795064731887	0.8941506433753779	0.2183371189284473	-0.3256549009868853	-0.477542182633318	-0.1429630577712295	0.08799356990098142	0.0879935699009812	-0.1733127789082408	-0.1193643937714322	-0.06339887191169884	0.001776664266318618	-0.2649369547609146	-0.1143737296346664	-0.0597689937188664	0.7393478789397484	-0.1175306297056164	0.1968371016624159	-0.1588580773319481	0.5783545885289785	0.5783545885289664	0.04022145795725506	-0.04170647700274954	0.1176434232267696	-0.06529789149836671	0.08119993661698387	-0.08247335124626083	-0.0252115755763924	-0.2046621819193561	0.1520508099661105	-0.008332701301379758	-0.03159223253382005	13.82107551532259	-2.339885282136096	4.079293473511823	5.968557805782598	-510.0254903371941	-80.62353817430261	-40.25977232939145	-4.164067772090407	-1.720150181494819	-1.019476942184663	11.53379781080545	-1.742009522645857	2.986465506876823	-2.02936356736759	8.990863331413724	8.990863331413285	0.6957307833645601	-0.6967487802180145	1.884782213831767	-0.8977030610471639	-2.036566976715914e-07	2.427704781693849e-07	4.835094927671383e-07	1.810341631490433e-07	-1.073279869663372e-06	-2.554745206863805e-07	-3.103908168826816e-08
0.07000000000000001	-0.05058167836194825	0.06415122250275201	0.893502549376162	0.2262898629624086	-0.3269154611431092	-0.4754246050044794	-0.1446572395173216	0.09421434070119329	0.09421434070119307	-0.1728786434948147	-0.1198116324065603	-0.06213189112001515	0.001078739175055505	-0.304631242731683	-0.1311693547610028	-0.06987709270230175	0.8506039703051116	-0.134445449497	0.2265369649277404	-0.1797421280798529	0.6653272467166645	0.6653272467166251	0.04656671270248786	-0.04767804595911439	0.1356665203755377	-0.07419045304855566	0.07585170731320286	-0.0790850149250496	-0.02442321863019512	-0.2012906240156167	0.148120351778411	-0.00764246506668352	-0.02730909348059651	12.73053952711907	-2.499185277836506	4.162345063136188	5.93275685226012	-508.3101232715981	-79.82482824940666	-40.3667938220529	-3.837679362026347	-1.642175814723602	-1.01078527040125	10.831943398995	-1.645894444564124	2.940461344650098	-2.082504257479912	8.479624578149551	8.47962457814557	0.5981802628214459	-0.5378159220689031	1.748137468477362	-0.8706236391010526	-2.097343957650206e-07	2.217348417782274e-07	4.969381456968093e-07	1.868568836472224e-07	-1.115570829033977e-06	-2.67285174738106e-07	-3.342170712046283e-08
